<?xml version="1.0" encoding="utf-8"?>
<!-- Generator: Adobe Illustrator 26.0.2, SVG Export Plug-In . SVG Version: 6.00 Build 0)  -->
<svg version="1.1" id="Vrstva_1" xmlns="http://www.w3.org/2000/svg" xmlns:xlink="http://www.w3.org/1999/xlink" x="0px" y="0px"
	 viewBox="0 0 2990 1484" style="enable-background:new 0 0 2990 1484;" xml:space="preserve">
<style type="text/css">
	.st0{fill:url(#SVGID_1_);}
	.st1{fill:url(#SVGID_00000040563450388055100830000012292708681122255010_);}
	.st2{fill:url(#SVGID_00000111902548248658238100000014068887838378872719_);}
	.st3{fill:url(#SVGID_00000119095813930039160900000007270533501345632945_);}
	.st4{fill:url(#SVGID_00000171708426263861667420000002741242103680279738_);}
	
		.st5{fill:url(#SVGID_00000121250446406082278040000004458946905131075235_);stroke:url(#SVGID_00000157295003427077216550000003405241754474651017_);stroke-width:24.7774;stroke-miterlimit:10;}
	.st6{fill:url(#SVGID_00000061445935412448678960000015412529174702238619_);}
	.st7{fill:url(#SVGID_00000137810343834675326390000012635765910127054744_);}
	.st8{fill:url(#SVGID_00000128459769376730287330000018399499319106230161_);}
	.st9{fill:url(#SVGID_00000157993386310042791820000013674906349088017536_);}
	.st10{fill:url(#SVGID_00000165918454730398181270000012819938912704831360_);}
	.st11{fill:url(#SVGID_00000166651981704941991900000009316723193125541823_);}
	.st12{fill:url(#SVGID_00000106109490887131141950000016331508867765696658_);}
</style>
<g id="Vrstva_2_00000093162415395822134090000013733364998459275169_">
	<g id="Vrstva_1-2">
		<linearGradient id="SVGID_1_" gradientUnits="userSpaceOnUse" x1="2995.311" y1="30.6827" x2="2227.738" y2="798.2557">
			<stop  offset="0" style="stop-color:#FFCC00"/>
			<stop  offset="0.1286" style="stop-color:#F7C400"/>
			<stop  offset="0.3248" style="stop-color:#E2AF00"/>
			<stop  offset="0.4832" style="stop-color:#CC9900"/>
			<stop  offset="1" style="stop-color:#FFCC00"/>
		</linearGradient>
		<path class="st0" d="M2976.4,816.3c-24.2,5.5-42.6,0.7-61.6-16.3c-152.9-136.8-306.8-272.4-460.4-408.3
			c-6.4-5.6-13.1-10.9-24.4-20.3V817h-183.5V12.8c24.5-6.1,43-0.2,62,16.2c152.8,131.4,306.5,261.6,460,392.2
			c5.9,5,12.1,9.4,23.2,18c0.6-14.3,1.5-24.1,1.5-33.9c0.1-121.7,0.5-243.3-0.4-365c-0.1-21.5,5-29.6,27-29
			c51.9,1.5,103.9,0.5,156.6,0.5L2976.4,816.3z"/>
		
			<linearGradient id="SVGID_00000102505043870463933820000007226669667790331299_" gradientUnits="userSpaceOnUse" x1="1285.5125" y1="309.1008" x2="667.2634" y2="927.3499">
			<stop  offset="0" style="stop-color:#FFCC00"/>
			<stop  offset="0.1286" style="stop-color:#F7C400"/>
			<stop  offset="0.3248" style="stop-color:#E2AF00"/>
			<stop  offset="0.4832" style="stop-color:#CC9900"/>
			<stop  offset="1" style="stop-color:#FFCC00"/>
		</linearGradient>
		<path style="fill:url(#SVGID_00000102505043870463933820000007226669667790331299_);" d="M781.7,819.5h-48.2
			c-47.5,0-127.9-1.1-170.7-1.3c-1.5,0-3-1.1-7.8-3c41.2-82,81.3-162.1,121.7-242.2C767.1,393.8,857.5,214.8,948,35.8
			c5.9-11.7,8.6-26,27.8-26c19.5,0,21.3,14.8,27.2,26.4C1131,288.8,1259,541.6,1386.8,794.4c3.4,6.8,6.3,14,10.2,22.9h-208.6
			c-11.2-24.8-21.5-51.2-34.9-75.7c-4.7-8.6-16.8-18.1-25.8-18.2c-99.3-1.2-198.5-0.5-297.8-1.1C827.4,722.3,804.6,725,781.7,819.5
			L781.7,819.5z M1087.3,585.7L978.8,348.5l-9.2,0.1c-35.7,78.2-71.4,156.4-108.3,237.1H1087.3z"/>
		
			<linearGradient id="SVGID_00000150812307096669488810000006679737427085868684_" gradientUnits="userSpaceOnUse" x1="635.2768" y1="-98.9227" x2="-133.4609" y2="669.8149">
			<stop  offset="0" style="stop-color:#FFCC00"/>
			<stop  offset="0.1286" style="stop-color:#F7C400"/>
			<stop  offset="0.3248" style="stop-color:#E2AF00"/>
			<stop  offset="0.4832" style="stop-color:#CC9900"/>
			<stop  offset="1" style="stop-color:#FFCC00"/>
		</linearGradient>
		<path style="fill:url(#SVGID_00000150812307096669488810000006679737427085868684_);" d="M231.4,199.5
			c0.8,38.2,1.3,76.4-0.2,114.5c-0.8,20.5,8.6,25.5,30.5,25.4c95.9-0.5,223.6,0,319.5,0l-76.5,150.8c-63.1,0.1-172-0.1-235.1-1
			c-32.1-0.5-39.1,8.7-38.6,34.9c1.7,86.1,0.7,172.2,0.7,258.4v33.9H13V11.8h733l-79.8,165.9c-97.8,0.1-213.9-2.3-311.7-2.3
			c-32.6,0-65.2,0.8-97.7-0.2C235.4,174.4,231.1,183.4,231.4,199.5z"/>
		
			<linearGradient id="SVGID_00000128475701674228653680000000887315115202524854_" gradientUnits="userSpaceOnUse" x1="2188.9932" y1="65.7746" x2="1585.0326" y2="669.7351">
			<stop  offset="0" style="stop-color:#FFCC00"/>
			<stop  offset="0.1286" style="stop-color:#F7C400"/>
			<stop  offset="0.3248" style="stop-color:#E2AF00"/>
			<stop  offset="0.4832" style="stop-color:#CC9900"/>
			<stop  offset="1" style="stop-color:#FFCC00"/>
		</linearGradient>
		<path style="fill:url(#SVGID_00000128475701674228653680000000887315115202524854_);" d="M1460.2,541.8
			c38.3-47.8,75.9-94.8,114.8-143.4c12.2,9.7,23.2,18.9,34.8,27.5c39,29,80.8,49.2,130.3,48.4c51.3-0.8,85.7-20.8,102.4-71.9
			c20.8-63.7,36.1-129.2,53.3-194.2c15.8-59.8,30.6-119.9,46.6-179.7c2-7.2,8.8-18.6,13.5-18.7c57.9-1.3,115.7-0.8,176.4-0.8
			c-15.3,66.5-29.7,129.4-44.3,192.1c-17.7,75.8-36,151.5-53.5,227.3c-41.8,181.6-165.8,267-342.7,234.5
			c-78.6-14.4-151.3-43.8-212.3-99.3c-4.5-4.1-8.9-8.3-13.1-12.7C1464.6,549.1,1463.5,546.7,1460.2,541.8z"/>
		
			<linearGradient id="SVGID_00000020380457067752583660000001922986168508005007_" gradientUnits="userSpaceOnUse" x1="1869.7595" y1="654.8295" x2="1624.2208" y2="900.3682">
			<stop  offset="0" style="stop-color:#FFCC00"/>
			<stop  offset="0.1286" style="stop-color:#F7C400"/>
			<stop  offset="0.3248" style="stop-color:#E2AF00"/>
			<stop  offset="0.4832" style="stop-color:#CC9900"/>
			<stop  offset="1" style="stop-color:#FFCC00"/>
		</linearGradient>
		<path style="fill:url(#SVGID_00000020380457067752583660000001922986168508005007_);" d="M1608.3,679.1c0,0,67.4,26.3,148,26.3
			c75.4,0,137.7-26.3,137.7-26.3l49.3,139.4c0,0-77.9-40.8-194.5-40.8c-109.4,0-208.4,38.9-208.4,38.9L1608.3,679.1z"/>
		
			<linearGradient id="SVGID_00000034770990992288716650000000918298712129041560_" gradientUnits="userSpaceOnUse" x1="2235.5479" y1="207.2065" x2="753.8563" y2="1688.8981">
			<stop  offset="0" style="stop-color:#FFCC00"/>
			<stop  offset="0.1286" style="stop-color:#F7C400"/>
			<stop  offset="0.3248" style="stop-color:#E2AF00"/>
			<stop  offset="0.4832" style="stop-color:#CC9900"/>
			<stop  offset="1" style="stop-color:#FFCC00"/>
		</linearGradient>
		
			<linearGradient id="SVGID_00000127044243685688705970000004171139121707417731_" gradientUnits="userSpaceOnUse" x1="13.0105" y1="948.0523" x2="2976.3936" y2="948.0523">
			<stop  offset="0" style="stop-color:#FFCC00"/>
			<stop  offset="0.1286" style="stop-color:#F7C400"/>
			<stop  offset="0.3248" style="stop-color:#E2AF00"/>
			<stop  offset="0.4832" style="stop-color:#CC9900"/>
			<stop  offset="1" style="stop-color:#FFCC00"/>
		</linearGradient>
		
			<line style="fill:url(#SVGID_00000034770990992288716650000000918298712129041560_);stroke:url(#SVGID_00000127044243685688705970000004171139121707417731_);stroke-width:24.7774;stroke-miterlimit:10;" x1="13" y1="948.1" x2="2976.4" y2="948.1"/>
		
			<linearGradient id="SVGID_00000141451152215336346650000017648362263184057239_" gradientUnits="userSpaceOnUse" x1="411.1407" y1="1109.0829" x2="29.6932" y2="1490.5304">
			<stop  offset="0" style="stop-color:#FFCC00"/>
			<stop  offset="0.1286" style="stop-color:#F7C400"/>
			<stop  offset="0.3248" style="stop-color:#E2AF00"/>
			<stop  offset="0.4832" style="stop-color:#CC9900"/>
			<stop  offset="1" style="stop-color:#FFCC00"/>
		</linearGradient>
		<path style="fill:url(#SVGID_00000141451152215336346650000017648362263184057239_);" d="M13,1122.8h70.7l269.1,215.1v-215.1h72.2
			v357L85.2,1202.5v271.3H13V1122.8z"/>
		
			<linearGradient id="SVGID_00000025409301427503458640000011164677233319629758_" gradientUnits="userSpaceOnUse" x1="932.1418" y1="1153.5459" x2="550.2879" y2="1535.3998">
			<stop  offset="0" style="stop-color:#FFCC00"/>
			<stop  offset="0.1286" style="stop-color:#F7C400"/>
			<stop  offset="0.3248" style="stop-color:#E2AF00"/>
			<stop  offset="0.4832" style="stop-color:#CC9900"/>
			<stop  offset="1" style="stop-color:#FFCC00"/>
		</linearGradient>
		<path style="fill:url(#SVGID_00000025409301427503458640000011164677233319629758_);" d="M808.2,1399.6H614.3l-44.3,74.2h-81.2
			l222.5-357.5l222.5,357.5h-81.2L808.2,1399.6z M641.3,1354h139l-69.1-118.3L641.3,1354z M737.5,1032.5h73.6l-88.7,65.2h-56.3
			L737.5,1032.5z"/>
		
			<linearGradient id="SVGID_00000112609380273546333360000004264871183694052761_" gradientUnits="userSpaceOnUse" x1="1298.6023" y1="1143.5875" x2="984.846" y2="1457.3439">
			<stop  offset="0" style="stop-color:#FFCC00"/>
			<stop  offset="0.1286" style="stop-color:#F7C400"/>
			<stop  offset="0.3248" style="stop-color:#E2AF00"/>
			<stop  offset="0.4832" style="stop-color:#CC9900"/>
			<stop  offset="1" style="stop-color:#FFCC00"/>
		</linearGradient>
		<path style="fill:url(#SVGID_00000112609380273546333360000004264871183694052761_);" d="M1359.8,1369
			c0,56.2-69.1,104.8-154.1,104.8h-204.4v-351H1202c78.2,0,142,42.6,142,94.8c0,32.1-27.1,54.7-54.1,70.7
			C1331.2,1303.4,1359.8,1331.9,1359.8,1369z M1078,1170.4v96.8h111.2c44.3,0,75.2-21.6,75.2-49.1c0-26.6-30.1-47.6-75.2-47.6
			L1078,1170.4L1078,1170.4z M1192.9,1424.2c52.6,0,87.2-24.6,87.2-55.2c0-32.1-34.6-55.7-87.2-55.7h-115v110.8L1192.9,1424.2z"/>
		
			<linearGradient id="SVGID_00000065056719360458923040000014757610854382930111_" gradientUnits="userSpaceOnUse" x1="1732.7802" y1="1069.6422" x2="1437.7561" y2="1364.6663">
			<stop  offset="0" style="stop-color:#FFCC00"/>
			<stop  offset="0.1286" style="stop-color:#F7C400"/>
			<stop  offset="0.3248" style="stop-color:#E2AF00"/>
			<stop  offset="0.4832" style="stop-color:#CC9900"/>
			<stop  offset="1" style="stop-color:#FFCC00"/>
		</linearGradient>
		<path style="fill:url(#SVGID_00000065056719360458923040000014757610854382930111_);" d="M1623.6,1473.8h-76.7v-148l-162.3-203.1
			h86.4l114.2,152.4l114.2-152.4h86.4l-162.3,203.1L1623.6,1473.8L1623.6,1473.8z"/>
		
			<linearGradient id="SVGID_00000155127286156085133760000010719276116991321771_" gradientUnits="userSpaceOnUse" x1="2126.77" y1="1093.8845" x2="1847.9158" y2="1372.7388">
			<stop  offset="0" style="stop-color:#FFCC00"/>
			<stop  offset="0.1286" style="stop-color:#F7C400"/>
			<stop  offset="0.3248" style="stop-color:#E2AF00"/>
			<stop  offset="0.4832" style="stop-color:#CC9900"/>
			<stop  offset="1" style="stop-color:#FFCC00"/>
		</linearGradient>
		<path style="fill:url(#SVGID_00000155127286156085133760000010719276116991321771_);" d="M1949,1170.4h-130v-47.6h336.7v47.6h-130
			v303.4H1949V1170.4z"/>
		
			<linearGradient id="SVGID_00000181787968511335676270000006947313736916261787_" gradientUnits="userSpaceOnUse" x1="2539.9377" y1="1138.7909" x2="2218.6248" y2="1460.1038">
			<stop  offset="0" style="stop-color:#FFCC00"/>
			<stop  offset="0.1286" style="stop-color:#F7C400"/>
			<stop  offset="0.3248" style="stop-color:#E2AF00"/>
			<stop  offset="0.4832" style="stop-color:#CC9900"/>
			<stop  offset="1" style="stop-color:#FFCC00"/>
		</linearGradient>
		<path style="fill:url(#SVGID_00000181787968511335676270000006947313736916261787_);" d="M2232.3,1122.8h291.6v48.6H2309v95.8
			h208.2v47.1H2309v109.3h219.5v50.2h-296.1L2232.3,1122.8L2232.3,1122.8z"/>
		
			<linearGradient id="SVGID_00000160172476421338933390000017427608866641321093_" gradientUnits="userSpaceOnUse" x1="2967.3821" y1="1129.5688" x2="2622.0005" y2="1474.9504">
			<stop  offset="0" style="stop-color:#FFCC00"/>
			<stop  offset="0.1286" style="stop-color:#F7C400"/>
			<stop  offset="0.3248" style="stop-color:#E2AF00"/>
			<stop  offset="0.4832" style="stop-color:#CC9900"/>
			<stop  offset="1" style="stop-color:#FFCC00"/>
		</linearGradient>
		<path style="fill:url(#SVGID_00000160172476421338933390000017427608866641321093_);" d="M2620.9,1122.8h76.7v161.5l175.1-161.5
			h87.9l-179.6,162l195.4,189.1h-92.4l-151.1-152.4l-35.3,30.1v122.4h-76.7L2620.9,1122.8L2620.9,1122.8z"/>
	</g>
</g>
</svg>
