<?xml version="1.0" encoding="utf-8"?>
<!-- Generator: Adobe Illustrator 23.0.1, SVG Export Plug-In . SVG Version: 6.00 Build 0)  -->
<svg version="1.1" id="Vrstva_1" xmlns="http://www.w3.org/2000/svg" xmlns:xlink="http://www.w3.org/1999/xlink" x="0px" y="0px"
	 viewBox="0 0 4096 3112" style="enable-background:new 0 0 4096 3112;" xml:space="preserve">
<style type="text/css">
	.st0{display:none;}
	.st1{display:inline;}
	.st2{display:inline;fill:none;}
	.st3{fill:#E62E2D;}
	.st4{display:inline;fill:#E62E2D;}
	.st5{fill:#FCFCFC;}
	.st6{fill:none;stroke:#000000;stroke-width:31.7824;stroke-miterlimit:10;}
	.st7{display:inline;fill:none;stroke:#000000;stroke-width:31.7824;stroke-miterlimit:10;}
	.st8{fill:none;stroke:#000000;stroke-width:20;stroke-miterlimit:10;}
	.st9{fill:none;stroke:#000000;stroke-width:15;stroke-miterlimit:10;}
</style>
<g>
	<g>
		<g class="st0">
			<g class="st1">
				<path d="M926.4,828.1c-2.9,0.6-5.2,0.1-7.5-1.9c-18.4-15.9-37.1-31.8-55.7-47.5c-0.8-0.6-1.5-1.3-2.9-2.4c0,17.7,0,34.7,0,51.9
					c-7.6,0-14.9,0-22.1,0c0-31.4,0-62.5,0-93.7c2.9-0.8,5.2,0,7.5,1.9c18.4,15.3,37.1,30.5,55.7,45.6c0.8,0.6,1.5,1.1,2.8,2.2
					c0.1-1.7,0.1-2.8,0.1-3.9c0-14.2,0.1-28.3,0-42.5c0-2.5,0.6-3.4,3.3-3.4c6.2,0.1,12.6,0.1,18.9,0.1
					C926.4,766,926.4,797,926.4,828.1z"/>
				<path d="M853.2,723.2c0,0-3.4,0-5.8,0c-5.7,0-15.5-0.1-20.6-0.1c-0.1,0-0.4-0.1-0.9-0.4c5-9.5,9.8-18.9,14.7-28.2
					c10.9-20.8,21.9-41.7,32.8-62.5c0.8-1.4,1-3.1,3.3-3.1c2.4,0,2.5,1.7,3.3,3.1c15.5,29.5,30.9,58.9,46.4,88.4
					c0.4,0.8,0.8,1.7,1.3,2.7c-8.5,0-16.8,0-25.2,0c-1.4-2.9-2.7-6-4.2-8.8c-0.5-1-2-2.2-3.1-2.2c-12-0.1-24-0.1-36-0.1
					C858.7,711.9,856,712.3,853.2,723.2L853.2,723.2z M890.1,696c-4.4-9.4-8.8-18.6-13.1-27.6c-0.4,0-0.8,0-1.1,0
					c-4.3,9.2-8.6,18.2-13.1,27.6C872,696,880.8,696,890.1,696z"/>
				<path d="M760.3,722.9c0-31.4,0-62.4,0-93.7c24.9,0,49.5,0,74.6,0c0,5.8,0,11.7,0,17.4c0,2.2-1.8,1.7-2.9,1.7
					c-12.3,0-24.7,0-37,0c-3.3,0-6.6,0.1-9.9,0c-2.2-0.1-2.7,1-2.5,2.8c0.1,4.4,0.1,8.9,0,13.3c-0.1,2.4,0.9,2.9,3.1,2.9
					c12.5-0.1,24.8,0,37.2,0c1.1,0,2.4,0,3.8,0c0,6,0,11.4,0,17.4c-1.3,0.1-2.4,0.3-3.7,0.3c-12.2,0-24.4,0.1-36.6-0.1
					c-3.3,0-3.9,1-3.9,4.1c0.1,10,0.1,20.1,0.1,30.1c0,1.3,0,2.4,0,3.9C774.9,722.9,767.6,722.9,760.3,722.9z"/>
				<path d="M743.1,796.1c4.6-5.6,9.2-11.1,13.9-16.7c1.5,1.1,2.8,2.2,4.2,3.2c4.7,3.4,9.8,5.7,15.8,5.6c6.2-0.1,10.4-2.4,12.3-8.4
					c2.5-7.4,4.3-15,6.5-22.6c1.9-7,3.7-14,5.6-21c0.3-0.9,1-2.2,1.7-2.2c7-0.1,14-0.1,21.4-0.1c-1.9,7.8-3.6,15-5.3,22.4
					c-2.2,8.8-4.3,17.7-6.5,26.4c-5.1,21.1-20.1,31.1-41.4,27.3c-9.5-1.7-18.3-5.1-25.7-11.6c-0.5-0.5-1-1-1.7-1.5
					C743.7,797,743.5,796.7,743.1,796.1z"/>
			</g>
			<path class="st1" d="M761,812.1c0,0,8.1,3.1,17.9,3.1c9.2,0,16.7-3.1,16.7-3.1l6,16.3c0,0-9.4-4.7-23.5-4.7
				c-13.2,0-25.2,4.6-25.2,4.6L761,812.1z"/>
		</g>
		<g class="st0">
			<line class="st2" x1="-664.2" y1="785.3" x2="-664.2" y2="52.2"/>
			<line class="st2" x1="-678.5" y1="68.1" x2="54.4" y2="68.1"/>
		</g>
		<g class="st0">
			<line class="st2" x1="3681.8" y1="1934.8" x2="3682.7" y2="2482.2"/>
			<line class="st2" x1="3697.1" y1="2466.3" x2="3184.7" y2="2465"/>
		</g>
	</g>
	<g>
		<g class="st0">
			<path class="st1" d="M1981.9,1864c0-15.6,0-31,0-46.8c1.3,0,2.5,0,3.7,0c7.5,0.1,15.1,0,22.6,0.6c8.4,0.9,13.2,7.6,10.7,15
				c-0.9,2.8-3.6,5-5.5,7.6c0,0,0.6,0.5,1.3,0.8c3.9,1.9,6.2,5,6.4,9.5c0.1,4.7-1.7,8.6-6,10.7c-2.7,1.3-5.8,2.3-8.9,2.4
				C1998.2,1864.3,1990.2,1864,1981.9,1864z M1988.1,1843.5c0,4.8,0,9.8,0,14.6c6.6,0,13,0.4,19.3-0.1c4.4-0.3,7.1-3.6,7.2-7.2
				c0.1-3.6-2.4-6.7-7.1-7.2C2001.2,1843.2,1994.7,1843.5,1988.1,1843.5z M1988,1837.7c5.5,0,10.4,0.1,15.5,0c1.5,0,3.1-0.3,4.6-0.8
				c3.3-1.1,5.1-3.8,4.8-7.1c-0.1-3.1-2-5.8-5.5-6.2c-6.4-0.8-12.8-0.8-19.5-1C1988,1827.9,1988,1832.6,1988,1837.7z"/>
			<path class="st1" d="M1901.3,1817.4c2.3,0,4.1,0,6.1,0c0,15.6,0,31.1,0,46.5c-11.3-11.2-22.5-22.4-33.7-33.6
				c-0.4,0.3-0.8,0.5-1.3,0.6c0,10.9,0,21.9,0,33.1c-2.2,0-3.9,0-6,0c0-15.5,0-31,0-46.5c0.3-0.3,0.5-0.4,0.8-0.6
				c11.2,11.2,22.2,22.4,34.1,34.2C1901.3,1839.2,1901.3,1828.3,1901.3,1817.4z"/>
			<path class="st1" d="M2139.8,1838.2c8.4,0,16.4,0,24.7,0c0,1.9,0,3.6,0,5.5c-8.1,0-16.3,0-24.4,0c0,5,0,9.8,0,14.9
				c9.4,0,18.8,0,28.4,0c0,2,0,3.7,0,5.5c-11.4,0-22.8,0-34.3,0c0-15.5,0-30.9,0-46.5c11.4,0,22.8,0,34.3,0c0,1.7,0,3.3,0,5.2
				c-1.1,0.1-2.2,0.1-3.3,0.1c-7.4,0-14.7,0.1-22,0c-2.3,0-3.4,0.5-3.3,3.1C2140,1829.8,2139.8,1833.8,2139.8,1838.2z"/>
			<path class="st1" d="M2190.8,1864c-2.2,0-3.7,0-5.7,0c0-15.5,0-30.9,0-46.7c1.8,0,3.6,0,5.6,0c0,8,0,16,0,25
				c1.4-1.3,2-1.8,2.8-2.5c6.2-6.2,12.7-12.2,18.7-18.7c3.3-3.7,6.9-4.8,12.3-3.7c-6.5,6.6-12.8,12.8-19.3,19.3
				c6.4,8.9,12.6,17.8,18.9,26.6c-5.1,1.7-7.1,0.9-10-3.1c-4.3-6.2-8.8-12.5-13.5-19.1c-3.2,3.2-6.2,6.1-9.2,9.2
				c-0.6,0.6-0.6,1.9-0.6,2.9C2190.6,1856.9,2190.8,1860.3,2190.8,1864z"/>
			<path class="st1" d="M1968.3,1864.1c-2.3,0-4.1,0.3-5.7-0.1c-1-0.3-2.2-1.3-2.4-2.2c-1.4-4.8-4.6-6-9.3-5.6
				c-5.6,0.4-11.2,0.3-16.8,0c-2,0-3.4,0.6-3.9,2.5c0,0.1-0.1,0.1-0.1,0.3c-1.3,4.6-4.2,6.2-9.3,4.7c7.8-15.5,15.5-31.1,23.6-47.5
				C1952.5,1832.6,1960.3,1848.1,1968.3,1864.1z M1934.2,1850.7c6.9,0,13.3,0,20.1,0c-3.3-7.2-6.5-14.1-9.7-21.1
				c-0.3,0-0.6,0.1-0.9,0.1C1940.7,1836.6,1937.5,1843.4,1934.2,1850.7z"/>
			<path class="st1" d="M2072,1817.5c-3.6,5.8-6.7,11.8-10.8,17c-5.6,7.5-8.4,15.5-7.1,24.8c0.1,1.4,0,2.9,0,4.6
				c-1,0.1-1.9,0.1-2.8,0.3c-0.9,0-1.9,0-3.4,0c0-3.7-0.3-7.2,0.1-10.8c0.4-4.8-1-9-3.7-13.1c-5-7.4-9.4-15-14.1-22.6
				c5.7-1.3,6.6-1,9.4,3.6c3.8,6.1,7.5,12.3,11.6,18.9c0.8-1.4,1.5-2.7,2.3-3.9c2.9-4.8,6-9.7,8.9-14.5
				C2065.5,1816.6,2065.5,1816.6,2072,1817.5z"/>
			<path class="st1" d="M2096.8,1822.7c-5.6,0-10.7,0-16,0c0-2,0-3.6,0-5.3c12.7,0,25.3,0,38.3,0c0,1.7,0,3.3,0,5.3
				c-4.6,0-8.9,0.1-13.2,0c-2.3-0.1-3.1,0.8-3.1,3.1c0.1,11.4,0,23,0,34.5c0,1.1,0,2.4,0,3.8c-2.3,0-4.1,0-6.1,0
				C2096.8,1850.3,2096.8,1836.8,2096.8,1822.7z"/>
			<path class="st1" d="M1953.7,1801.8c-2.5,4.2-4.6,7.8-6.9,11.2c-0.6,0.9-2.4,0.8-4.6,1.4c1.3-4.4,2.3-8,3.4-11.4
				c0.1-0.5,1-1,1.7-1C1949.1,1801.7,1951,1801.8,1953.7,1801.8z"/>
		</g>
		<g class="st0">
			<g class="st1">
				<path class="st3" d="M1408.5,1090.9c-2.9,0.6-5.2,0.1-7.5-1.9c-18.4-15.9-37.1-31.8-55.7-47.5c-0.8-0.6-1.5-1.3-2.9-2.4
					c0,17.7,0,34.7,0,51.9c-7.6,0-14.9,0-22.1,0c0-31.4,0-62.5,0-93.7c2.9-0.8,5.2,0,7.5,1.9c18.4,15.3,37.1,30.5,55.7,45.6
					c0.8,0.6,1.5,1.1,2.8,2.2c0.1-1.7,0.1-2.8,0.1-3.9c0-14.2,0.1-28.3,0-42.5c0-2.5,0.6-3.4,3.3-3.4c6.2,0.1,12.6,0.1,18.9,0.1
					C1408.5,1028.8,1408.5,1059.8,1408.5,1090.9z"/>
				<path class="st3" d="M1335.2,986.2c0,0-3.4,0-5.8,0c-5.7,0-15.5-0.1-20.6-0.1c-0.1,0-0.4-0.1-0.9-0.4c5-9.5,9.8-18.9,14.7-28.2
					c10.9-20.8,21.9-41.7,32.8-62.5c0.8-1.4,1-3.1,3.3-3.1c2.4,0,2.5,1.7,3.3,3.1c15.5,29.5,30.9,58.9,46.4,88.4
					c0.4,0.8,0.8,1.7,1.3,2.7c-8.5,0-16.8,0-25.2,0c-1.4-2.9-2.7-6-4.2-8.8c-0.5-1-2-2.2-3.1-2.2c-12-0.1-24-0.1-36-0.1
					C1340.7,974.9,1338,975.1,1335.2,986.2L1335.2,986.2z M1372.2,959c-4.4-9.4-8.8-18.6-13.1-27.6c-0.4,0-0.8,0-1.1,0
					c-4.3,9.2-8.6,18.2-13.1,27.6C1354,959,1362.9,959,1372.2,959z"/>
				<path class="st3" d="M1242.3,985.8c0-31.4,0-62.4,0-93.7c24.9,0,49.5,0,74.6,0c0,5.8,0,11.7,0,17.4c0,2.2-1.8,1.7-2.9,1.7
					c-12.3,0-24.7,0-37,0c-3.3,0-6.6,0.1-9.9,0c-2.2-0.1-2.7,1-2.5,2.8c0.1,4.4,0.1,8.9,0,13.3c-0.1,2.4,0.9,2.9,3.1,2.9
					c12.5-0.1,24.8,0,37.2,0c1.1,0,2.4,0,3.8,0c0,6,0,11.4,0,17.4c-1.3,0.1-2.4,0.3-3.7,0.3c-12.2,0-24.4,0.1-36.6-0.1
					c-3.3,0-3.9,1-3.9,4.1c0.1,10,0.1,20.1,0.1,30.1c0,1.3,0,2.4,0,3.9C1256.9,985.8,1249.6,985.8,1242.3,985.8z"/>
				<path class="st3" d="M1225.1,1059c4.6-5.6,9.2-11.1,13.9-16.7c1.5,1.1,2.8,2.2,4.2,3.2c4.7,3.4,9.8,5.7,15.8,5.6
					c6.2-0.1,10.4-2.4,12.3-8.4c2.5-7.4,4.3-15,6.5-22.6c1.9-7,3.7-14,5.6-21c0.3-0.9,1-2.2,1.7-2.2c7-0.1,14-0.1,21.4-0.1
					c-1.9,7.8-3.6,15-5.3,22.4c-2.2,8.8-4.3,17.7-6.5,26.4c-5.1,21.1-20.1,31.1-41.4,27.3c-9.5-1.7-18.3-5.1-25.7-11.6
					c-0.5-0.5-1-1-1.7-1.5C1225.7,1059.8,1225.5,1059.5,1225.1,1059z"/>
			</g>
			<path class="st4" d="M1243,1074.9c0,0,8.1,3.1,17.9,3.1c9.2,0,16.7-3.1,16.7-3.1l6,16.3c0,0-9.4-4.7-23.5-4.7
				c-13.2,0-25.2,4.6-25.2,4.6L1243,1074.9z"/>
		</g>
		<g>
			<g>
				<g>
					<g>
						<path class="st5" d="M3894.7,1659.8c-31,7-54.7,0.9-79.1-21c-196-175.4-393.5-349.4-590.5-523.8c-8.1-7.2-16.8-14-31.3-25.9
							c0,194.3,0,382,0,571.6c-81.1,0-157.4,0-235.3,0c0-345,0-688.3,0-1031.7c31.5-7.8,55-0.3,79.5,20.7
							c196,168.6,393.2,335.6,590,503.2c7.5,6.4,15.5,12.1,29.7,23.1c0.8-18.3,1.9-30.9,1.9-43.6c0.1-156.1,0.6-312.1-0.5-468.2
							c-0.1-27.6,6.5-38,34.7-37.1c66.6,2,133.4,0.6,200.9,0.6C3894.7,974.9,3894.7,1317.2,3894.7,1659.8z"/>
						<path class="st5" d="M1079.5,1663.9c0,0-35.7,0-61.8,0c-60.9,0-164-1.5-218.9-1.7c-1.9,0-3.8-1.4-9.9-3.8
							c52.9-105.3,104.4-208,156.1-310.7c115.8-229.8,231.6-459.6,347.8-689.2c7.6-15,10.9-33.3,35.6-33.4c25,0,27.3,18.9,34.8,33.8
							c164.4,324.2,328.4,648.5,492.4,972.8c4.4,8.8,8,17.9,13.1,29.4c-90.8,0-178.2,0-267.6,0c-14.4-31.9-27.6-65.6-44.9-97.1
							c-6.1-11.1-21.6-23.3-32.9-23.4c-127.4-1.7-254.6-0.6-382-1.4C1138.1,1539.1,1108.9,1542.6,1079.5,1663.9L1079.5,1663.9z
							 M1471.5,1364c-47.5-104-93.4-204.2-139.2-304.3c-3.9,0.1-7.9,0.1-11.8,0.3c-45.8,100.3-91.7,200.6-139,304.1
							C1279.5,1364,1372.9,1364,1471.5,1364z"/>
						<path class="st5" d="M373.7,868.6c1,48.9,1.7,98-0.3,147c-1,26.3,11.1,32.7,39,32.5c123.1-0.6,286.8,0,409.7,0l-98.1,193.4
							c-80.9,0.1-220.7-0.1-301.6-1.3c-41.1-0.6-50.2,11.2-49.5,44.7c2.3,110.5,0.9,221,0.9,331.4v43.5H93.5v-1032h940.1
							L931.2,840.6c-125.5,0.1-274.3-2.9-399.8-2.9c-41.8,0-83.7,1-125.3-0.3C378.8,836.4,373.2,848,373.7,868.6z"/>
						<path class="st5" d="M1949.9,1307.7c49.1-61.4,97.4-121.7,147.3-184c15.6,12.3,29.7,24.3,44.6,35.3
							c50,37.2,103.6,63.1,167.2,62c65.9-1,110-26.6,131.3-92.2c26.6-81.6,46.4-165.8,68.4-249c20.2-76.8,39.3-153.8,59.8-230.5
							c2.5-9.3,11.2-23.8,17.3-23.9c74.2-1.7,148.5-1,226.3-1c-19.7,85.3-38.1,165.9-56.8,246.4c-22.8,97.3-46.1,194.3-68.5,291.6
							c-53.6,233-212.7,342.5-439.6,300.8c-100.8-18.6-194-56.2-272.3-127.4c-5.7-5.2-11.4-10.7-16.8-16.3
							C1955.6,1317.2,1954,1314,1949.9,1307.7z"/>
					</g>
					<path class="st5" d="M2139.8,1483.8c0,0,86.4,33.8,189.9,33.8c96.7,0,176.6-33.8,176.6-33.8l63.2,178.7
						c0,0-99.9-52.4-249.4-52.4c-140.4,0-267.4,49.8-267.4,49.8L2139.8,1483.8z"/>
				</g>
				<line class="st6" x1="93.5" y1="1828.8" x2="3894.7" y2="1828.8"/>
				<g>
					<path d="M93.5,2052.9h90.6l345.2,276v-276h92.6v458l-435.8-355.7v348H93.5V2052.9L93.5,2052.9z"/>
					<path d="M1113.5,2408H864.8l-56.8,95.2H703.9l285.4-458.6l285.4,458.6h-104.1L1113.5,2408z M899.4,2349.5h178.4L989,2197.7
						L899.4,2349.5z M1022.8,1937.2h94.5l-113.8,83.7h-72.3L1022.8,1937.2z"/>
					<path d="M1821.1,2368.7c0,72.1-88.7,134.4-197.6,134.4h-262.3v-450.3h257.4c100.3,0,182.2,54.7,182.2,121.5
						c0,41.2-34.7,70-69.4,90.6C1784.5,2284.6,1821.1,2321.2,1821.1,2368.7z M1459.5,2114.1v124.1h142.6c56.8,0,96.4-27.7,96.4-63.1
						c0-34.1-38.5-61.1-96.4-61.1L1459.5,2114.1L1459.5,2114.1z M1607,2439.5c67.5,0,111.9-31.5,111.9-70.7
						c0-41.2-44.4-71.4-111.9-71.4h-147.5v142.1H1607L1607,2439.5z"/>
					<path d="M2159.5,2503.2h-98.4v-189.8l-208.2-260.5h110.9l146.6,195.5l146.6-195.5h110.9l-208.2,260.5V2503.2L2159.5,2503.2z"/>
					<path d="M2576.9,2114.1h-166.8v-61.1h431.9v61.1h-166.8v389.1h-98.4v-389.1H2576.9z"/>
					<path d="M2940.3,2052.9h374v62.4h-275.7v122.8h267.1v60.5h-267.1v140.2h281.5v64.3h-379.9L2940.3,2052.9L2940.3,2052.9z"/>
					<path d="M3438.7,2052.9h98.4V2260l224.6-207.1h112.8l-230.4,207.7l250.7,242.4h-118.6l-193.7-195.5l-45.3,38.6v156.9h-98.4
						L3438.7,2052.9L3438.7,2052.9z"/>
				</g>
			</g>
		</g>
		<g class="st0">
			<line class="st7" x1="-182.2" y1="1048.1" x2="-182.2" y2="315.2"/>
			<line class="st7" x1="-196.5" y1="331" x2="536.4" y2="331"/>
		</g>
		<g class="st0">
			<line class="st7" x1="4163.8" y1="2197.7" x2="4164.7" y2="2745"/>
			<line class="st7" x1="4179.1" y1="2729.3" x2="3666.7" y2="2728"/>
		</g>
	</g>
</g>
<g id="Vrstva_3" class="st0">
	<g class="st1">
		<g>
			<g>
				<g>
					<path class="st3" d="M1582.9,1404.5v338.9c-10.2,2.3-17.9,0.3-26-6.9c-64.4-57.6-129.2-114.7-193.9-172
						c-2.7-2.4-5.5-4.6-10.3-8.5v187.7h-77.3v-338.8c10.3-2.6,18.1-0.1,26.1,6.8c64.4,55.3,129.1,110.2,193.7,165.2
						c2.5,2.1,5.1,4,9.8,7.6c0.3-6,0.6-10.2,0.6-14.3c0-51.2,0.2-102.5-0.1-153.7c-0.1-9.1,2.1-12.5,11.4-12.2
						C1538.8,1405,1560.7,1404.5,1582.9,1404.5z"/>
					<path class="st3" d="M913.4,1734.1c-53.9-106.5-107.7-213-161.7-319.4c-2.5-4.9-3.2-11.1-11.5-11.1c-8.1,0-9.2,6.1-11.7,11
						c-38.2,75.4-76.2,150.8-114.2,226.3c-17,33.7-33.9,67.5-51.3,102c2,0.8,2.6,1.2,3.3,1.2c18,0.1,51.9,0.6,71.9,0.6
						c8.6,0,20.3,0,20.3,0c9.7-39.8,19.2-41,20.3-41c41.8,0.3,83.6,0,125.4,0.5c3.7,0,8.8,4,10.8,7.7c5.7,10.3,10,21.4,14.7,31.9
						h87.9C916,1740,914.8,1737,913.4,1734.1z M692,1646.3c15.5-34,30.6-66.9,45.6-99.9c1.3,0,2.6,0,3.9-0.1
						c15,32.9,30.1,65.8,45.7,99.9L692,1646.3L692,1646.3z"/>
					<path class="st3" d="M426.8,1483.6c0.3,16.1,0.5,32.2-0.1,48.2c-0.3,8.6,3.6,10.7,12.8,10.7c15.1-0.1,32.1-0.1,49.6-0.1
						c29.2,0,59.7,0.1,84.9,0.1l-32.2,63.5c-14.1,0-33.5,0-52.7-0.1c-17-0.1-33.8-0.2-46.3-0.3c-13.5-0.2-16.5,3.7-16.3,14.7
						c0.7,36.3,0.3,72.6,0.3,108.8v14.3h-92.1v-338.8h308.7l-33.6,69.9c-37.7,0.1-81.9-0.8-120.7-0.9c-3.6,0-7.1,0-10.6,0
						c-13.7,0-27.5,0.3-41.2-0.1C428.5,1473,426.6,1476.8,426.8,1483.6z"/>
					<path class="st3" d="M1227.4,1403.4c-6.5,28-12.5,54.5-18.7,80.9c-7.5,31.9-15.2,63.8-22.5,95.8
						c-17.6,76.5-69.8,112.5-144.3,98.8c-33.1-6.1-63.7-18.4-89.4-41.8c-1.9-1.7-3.8-3.5-5.5-5.3c-0.8-0.8-1.3-1.8-2.6-3.9
						c16.1-20.1,32-39.9,48.4-60.4c5.1,4.1,9.8,8,14.6,11.6c16.4,12.2,34,20.7,54.9,20.4c21.6-0.3,36.1-8.8,43.1-30.3
						c8.7-26.8,15.2-54.4,22.4-81.8c6.7-25.2,12.9-50.5,19.6-75.7c0.8-3.1,3.7-7.8,5.7-7.9
						C1177.4,1403.2,1201.8,1403.4,1227.4,1403.4z"/>
				</g>
				<path class="st3" d="M1147.8,1744.3c0,0-32.8-17.2-81.9-17.2c-46.1,0-87.8,16.4-87.8,16.4l28.6-57.9c0,0,28.4,11.1,62.3,11.1
					c31.8,0,58-11.1,58-11.1L1147.8,1744.3z"/>
			</g>
			<line class="st8" x1="1659.5" y1="1748.8" x2="1659.5" y2="1403.9"/>
			<g>
				<path d="M1985.2,1510.4v146.1l-182.7-146.1h-48v238.3h49v-184.2l230.7,188.3v-242.4L1985.2,1510.4L1985.2,1510.4z"/>
				<path d="M2205.3,1445.1l-7.4,48.3h38.3l19.1-48.3H2205.3z M2228.6,1506l-151.1,242.7h55.1l30.1-50.4h131.6l30.1,50.4h55.1
					L2228.6,1506z M2181.1,1667.4l47.5-80.3l46.9,80.3H2181.1z"/>
				<path d="M2621.4,1622.8c18.4-10.9,36.7-26.2,36.7-48c0-35.4-43.4-64.3-96.4-64.3h-136.3v238.3h138.8c57.7,0,104.6-33,104.6-71.2
					C2668.9,1652.4,2649.5,1633,2621.4,1622.8z M2477.6,1542.8h75.5c30.6,0,51,14.3,51,32.3c0,18.7-20.9,33.4-51,33.4h-75.5V1542.8z
					 M2555.6,1715h-78.1v-75.2h78.1c35.7,0,59.2,16,59.2,37.8C2614.8,1698.4,2591.4,1715,2555.6,1715z"/>
				<path d="M2899.6,1510.4l-77.6,103.5l-77.6-103.5h-58.7l110.2,137.9v100.4h52.1v-100.4l110.2-137.9H2899.6z"/>
				<path d="M2980.7,1510.4v32.3h88.3v206h52.1v-206h88.3v-32.3H2980.7z"/>
				<path d="M3313.4,1714.7v-74.2h141.4v-32h-141.4v-65h145.9v-33h-198v238.3h201.1v-34.1L3313.4,1714.7L3313.4,1714.7z"/>
				<path d="M3645.8,1632l-12-11.6l12-10.8l110-99.2h-59.7l-50.3,46.3l-68.6,63.3v-109.6h-52.1v238.3h52.1v-83.1l24-20.4l44.6,45.1
					l57.9,58.4h62.8L3645.8,1632z"/>
			</g>
		</g>
		<polyline class="st9" points="3890.7,1683.7 3890.7,1866.6 3645.8,1866.6 		"/>
		<polyline class="st9" points="210.6,1556 210.6,1325.1 489.1,1325.1 		"/>
	</g>
	<path class="st2" d="M2205.3,1445.1h50l-19.1,48.3h-38.3L2205.3,1445.1z M829.8,1743.8c-4.7-10.5-9.1-21.6-14.7-31.9
		c-2-3.6-7.1-7.6-10.8-7.7c-41.8-0.5-83.6-0.2-125.4-0.5c-1.1,0-10.7,1.2-20.3,41c0,0-11.7,0-20.3,0c-20,0-53.9-0.5-71.9-0.6
		c-0.6,0-1.3-0.5-3.3-1.2c17.4-34.5,34.3-68.3,51.3-102c38-75.5,76.1-150.9,114.2-226.3c2.5-4.9,3.6-10.9,11.7-11
		c8.2,0,9,6.2,11.5,11.1c54,106.4,107.8,212.9,161.7,319.4c1.5,2.9,2.6,5.9,4.3,9.6L829.8,1743.8L829.8,1743.8z M1065.9,1727.1
		c-46.1,0-87.8,16.4-87.8,16.4l28.6-57.9c0,0,28.4,11.1,62.3,11.1c31.8,0,58-11.1,58-11.1l20.8,58.7
		C1147.8,1744.3,1115,1727.1,1065.9,1727.1z M1208.7,1484.3c-7.5,31.9-15.2,63.8-22.5,95.8c-17.6,76.5-69.8,112.5-144.3,98.8
		c-33.1-6.1-63.7-18.4-89.4-41.8c-1.9-1.7-3.8-3.5-5.5-5.3c-0.8-0.8-1.3-1.8-2.6-3.9c16.1-20.1,32-39.9,48.4-60.4
		c5.1,4.1,9.8,8,14.6,11.6c16.4,12.2,34,20.7,54.9,20.4c21.6-0.3,36.1-8.8,43.1-30.3c8.7-26.8,15.2-54.4,22.4-81.8
		c6.7-25.2,12.9-50.5,19.6-75.7c0.8-3.1,3.7-7.8,5.7-7.9c24.4-0.5,48.8-0.3,74.3-0.3C1220.9,1431.4,1214.9,1457.9,1208.7,1484.3z
		 M1582.9,1743.4c-10.2,2.3-17.9,0.3-26-6.9c-64.4-57.6-129.2-114.7-193.9-172c-2.7-2.4-5.5-4.6-10.3-8.5v187.7h-77.3v-338.8
		c10.3-2.6,18.1-0.1,26.1,6.8c64.4,55.3,129.1,110.2,193.7,165.2c2.5,2.1,5.1,4,9.8,7.6c0.3-6,0.6-10.2,0.6-14.3
		c0-51.2,0.2-102.5-0.1-153.7c-0.1-9.1,2.1-12.5,11.4-12.2c21.9,0.7,43.8,0.2,65.9,0.2L1582.9,1743.4L1582.9,1743.4z M2034.1,1752.8
		l-230.7-188.3v184.2h-49v-238.3h48l182.7,146.1v-146.1h49V1752.8L2034.1,1752.8z M2324.5,1748.7l-30.1-50.4h-131.6l-30.1,50.4
		h-55.1l151.1-242.7l151,242.7H2324.5z M2564.3,1748.7h-138.8v-238.3h136.3c53.1,0,96.4,28.9,96.4,64.3c0,21.8-18.4,37.1-36.7,48
		c28.1,10.2,47.5,29.6,47.5,54.8C2668.9,1715.7,2622,1748.7,2564.3,1748.7z M2848,1648.3v100.4h-52v-100.4l-110.2-137.9h58.7
		l77.6,103.5l77.6-103.5h58.7L2848,1648.3z M3209.3,1542.8H3121v206h-52v-206h-88.3v-32.3h228.6V1542.8z M3462.4,1748.7h-201.1
		v-238.3h198v33h-145.9v65h141.4v32h-141.4v74.2h149V1748.7z"/>
</g>
</svg>
